<svg width="160" height="48" viewBox="0 0 160 48" fill="none" xmlns="http://www.w3.org/2000/svg">
  <rect width="160" height="48" rx="24" fill="#0F172A"/>
  <path d="M30.713 15.818L23.727 32H19.486L26.481 18.152H17.391V14.781H30.713V15.818ZM40.12 32.29C37.08 32.29 35.217 30.58 35.217 27.83C35.217 25.062 37.071 23.379 39.821 23.379C42.58 23.379 44.362 24.981 44.362 27.488C44.362 27.929 44.326 28.262 44.29 28.469H38.984C39.119 29.603 39.929 30.269 41.18 30.269C42.112 30.269 42.832 29.927 43.327 29.369L44.191 31.142C43.372 31.871 42.094 32.29 40.12 32.29ZM39.011 26.678H41.72C41.684 25.724 41.126 25.116 40.12 25.116C39.146 25.116 38.399 25.724 39.011 26.678ZM56.47 23.649V32H53.655V31.127C53.052 31.799 52.179 32.29 50.856 32.29C48.79 32.29 47.314 31.16 47.314 29.396C47.314 27.605 48.727 26.642 50.802 26.642C52.026 26.642 52.899 27.029 53.403 27.569V27.272C53.403 26.183 52.719 25.58 51.342 25.58C50.289 25.58 49.299 25.895 48.453 26.399L47.575 24.657C48.637 24 50.073 23.379 51.837 23.379C54.687 23.379 56.47 24.747 56.47 27.272V23.649ZM51.801 30.35C52.8 30.35 53.494 29.846 53.494 29.036C53.494 28.231 52.8 27.758 51.801 27.758C50.802 27.758 50.217 28.213 50.217 29.018C50.217 29.837 50.815 30.35 51.801 30.35Z" fill="white"/>
  <path d="M67.426 15.52C68.936 15.52 70.203 15.827 71.227 16.441L69.951 19.475C69.141 19.052 68.242 18.84 67.255 18.84C65.282 18.84 63.808 20.166 63.808 22.246C63.808 24.326 65.282 25.639 67.255 25.639C68.305 25.639 69.218 25.4 70.046 24.923L71.322 27.957C70.262 28.607 68.963 28.932 67.426 28.932C63.241 28.932 59.954 26.092 59.954 22.246C59.954 18.387 63.241 15.52 67.426 15.52ZM78.177 15.818V28.642H74.31V15.818H78.177ZM83.488 15.818H95.548V19.016H91.452V28.642H87.584V19.016H83.488V15.818ZM105.447 28.932C101.289 28.932 98.002 26.101 98.002 22.246C98.002 18.378 101.289 15.52 105.447 15.52C109.605 15.52 112.878 18.378 112.878 22.246C112.878 26.101 109.605 28.932 105.447 28.932ZM105.447 25.603C107.39 25.603 108.983 24.236 108.983 22.246C108.983 20.247 107.39 18.849 105.447 18.849C103.504 18.849 101.897 20.247 101.897 22.246C101.897 24.236 103.504 25.603 105.447 25.603ZM126.838 15.818L121.405 28.642H117.538L112.105 15.818H116.375L119.473 23.911L122.571 15.818H126.838Z" fill="#14B8A6"/>
</svg>
